<svg width="107" height="271" viewBox="0 0 107 271" fill="none" xmlns="http://www.w3.org/2000/svg">
<path d="M1.41406 69.1998L0.870481 68.3605L0.361158 68.6903L0.418546 69.2944L1.41406 69.1998ZM19.777 269.971C20.2027 270.322 20.833 270.263 21.1849 269.837L26.9184 262.9C27.2703 262.474 27.2104 261.844 26.7847 261.492C26.359 261.14 25.7287 261.2 25.3768 261.625L20.2803 267.792L14.1138 262.695C13.6881 262.344 13.0578 262.403 12.7059 262.829C12.3541 263.255 12.414 263.885 12.8397 264.237L19.777 269.971ZM105.87 0.360473L0.870481 68.3605L1.95765 70.0392L106.958 2.03918L105.87 0.360473ZM0.418546 69.2944L19.4185 269.294L21.4096 269.105L2.40958 69.1053L0.418546 69.2944Z" fill="#0D347F"/>
</svg>
