<svg width="155" height="277" viewBox="0 0 155 277" fill="none" xmlns="http://www.w3.org/2000/svg">
<path d="M153.143 52L154.057 52.4057L154.504 51.3975L153.457 51.0507L153.143 52ZM53.1229 275.559C53.3214 276.075 53.9001 276.332 54.4155 276.133L62.8142 272.899C63.3296 272.7 63.5865 272.122 63.3881 271.606C63.1896 271.091 62.6109 270.834 62.0955 271.032L54.63 273.907L51.755 266.442C51.5565 265.926 50.9778 265.669 50.4624 265.868C49.947 266.066 49.6901 266.645 49.8886 267.161L53.1229 275.559ZM0.328582 2.44931L152.828 52.9493L153.457 51.0507L0.957302 0.550703L0.328582 2.44931ZM152.229 51.5942L53.1422 274.794L54.9701 275.606L154.057 52.4057L152.229 51.5942Z" fill="#0D347F"/>
</svg>
