<svg width="666" height="273" viewBox="0 0 666 273" fill="none" xmlns="http://www.w3.org/2000/svg">
<path d="M655 64.9998L654.551 65.2196L655 64.9998ZM254.5 261L258.834 264.814L259.97 259.154L254.5 261ZM1.15811 72.9744C82.8653 45.7386 231.824 14.2459 367.599 4.37358C435.487 -0.562646 500.049 -0.0911715 551.248 9.00773C602.488 18.1138 640.166 35.8293 654.551 65.2196L655.449 64.78C640.834 34.9203 602.7 17.1358 551.423 8.02316C500.107 -1.09665 435.45 -1.56262 367.526 3.37622C231.676 13.254 82.6347 44.7614 0.841886 72.0258L1.15811 72.9744ZM654.551 65.2196C668.885 94.506 666.644 124.367 651.396 151.974C636.138 179.6 607.846 204.977 570.077 225.202C494.542 265.65 381.233 285.416 259.034 261.4L258.841 262.381C381.241 286.437 494.789 266.652 570.549 226.084C608.427 205.801 636.891 180.304 652.272 152.458C667.662 124.594 669.941 94.3878 655.449 64.78L654.551 65.2196Z" fill="#FF4042"/>
</svg>
