<svg width="711" height="318" viewBox="0 0 711 318" fill="none" xmlns="http://www.w3.org/2000/svg">
<path d="M695.5 80.5002L694.61 80.9567L695.5 80.5002ZM502 316L513.419 317.717L509.196 306.969L502 316ZM1.19201 68.4817C85.5649 51.9739 239.732 17.4728 382.511 5.96952C453.903 0.217715 522.375 0.223077 577.808 11.0757C633.274 21.9344 675.443 43.6018 694.61 80.9567L696.39 80.0437C676.798 41.862 633.859 20.011 578.193 9.11291C522.495 -1.79137 453.811 -1.78141 382.351 3.97598C239.426 15.491 85.1018 50.0266 0.807988 66.5189L1.19201 68.4817ZM694.61 80.9567C710.972 112.844 712.273 141.289 703.939 166.499C695.593 191.745 677.549 213.848 655.041 232.938C610.012 271.13 547.404 297.026 510.006 311.78L510.74 313.64C548.119 298.894 611.022 272.896 656.335 234.463C678.998 215.241 697.334 192.85 705.838 167.126C714.354 141.366 712.975 112.367 696.39 80.0437L694.61 80.9567Z" fill="#2F6173"/>
</svg>
