<svg width="111" height="110" viewBox="0 0 111 110" fill="none" xmlns="http://www.w3.org/2000/svg">
<path fill-rule="evenodd" clip-rule="evenodd" d="M55.7579 0.162952C55.6632 0.162472 55.5684 0.162231 55.4735 0.162231C25.1427 0.162231 0.554688 24.7502 0.554688 55.0811C0.554688 85.4119 25.1427 110 55.4735 110C85.7074 110 110.235 85.5688 110.392 55.3717H102C102 55.4144 102 55.4572 102 55.5C102 81.1812 81.1812 102 55.5 102C29.8188 102 9 81.1812 9 55.5C9 29.8187 29.8188 8.99997 55.5 8.99997C55.586 8.99997 55.672 9.0002 55.7579 9.00067V0.162952Z" fill="#FF4042"/>
<path fill-rule="evenodd" clip-rule="evenodd" d="M68 1.85602C68 1.10711 68.6071 0.5 69.356 0.5H74.1055H74.4445H74.7801H78.5125L78.5162 0.504357C78.6767 0.483751 78.8446 0.536233 78.9679 0.661803L82.4198 4.17744C82.6316 4.39317 82.6316 4.74295 82.4198 4.95869L78.9679 8.47432C78.8446 8.59989 78.6767 8.65237 78.5162 8.63177L78.5125 8.63613H74.7801H74.1055H69.356C68.6071 8.63613 68 8.02901 68 7.2801V1.85602Z" fill="#114FFF"/>
</svg>
