<svg width="49" height="27" viewBox="0 0 49 27" fill="none" xmlns="http://www.w3.org/2000/svg">
<mask id="path-1-inside-1_105_73" fill="white">
<path fill-rule="evenodd" clip-rule="evenodd" d="M2.19468 9.87607C0.982593 9.87607 0 10.8587 0 12.0708V20.8495C0 22.0616 0.982593 23.0442 2.19468 23.0442L9.87673 23.0442L10.9734 23.0442L17.0094 23.0442L23.252 16.7179C23.6572 16.3073 23.6319 15.6399 23.1967 15.2612L17.0094 9.87607H10.9734H10.4254H9.87673H2.19468Z"/>
</mask>
<path d="M2.19468 23.0442L2.19468 21.0442H2.19468V23.0442ZM9.87673 23.0442L9.87673 25.0442L9.87673 25.0442L9.87673 23.0442ZM10.9734 23.0442L10.9734 21.0442L10.9734 21.0442L10.9734 23.0442ZM17.0094 23.0442L17.0094 25.0442L17.8457 25.0442L18.433 24.4489L17.0094 23.0442ZM23.252 16.7179L21.8284 15.3131L21.8284 15.3131L23.252 16.7179ZM23.1967 15.2612L24.5098 13.7526L24.5098 13.7526L23.1967 15.2612ZM17.0094 9.87607L18.3225 8.36745L17.7579 7.87607H17.0094V9.87607ZM2 12.0708C2 11.9632 2.08716 11.8761 2.19468 11.8761V7.87607C-0.121977 7.87607 -2 9.75409 -2 12.0708H2ZM2 20.8495V12.0708H-2V20.8495H2ZM2.19468 21.0442C2.08716 21.0442 2 20.957 2 20.8495H-2C-2 23.1661 -0.121976 25.0442 2.19468 25.0442V21.0442ZM9.87673 21.0442L2.19468 21.0442L2.19468 25.0442L9.87673 25.0442L9.87673 21.0442ZM9.87673 25.0442L10.9734 25.0442L10.9734 21.0442L9.87673 21.0442L9.87673 25.0442ZM10.9734 25.0442L17.0094 25.0442L17.0094 21.0442L10.9734 21.0442L10.9734 25.0442ZM18.433 24.4489L24.6756 18.1227L21.8284 15.3131L15.5858 21.6394L18.433 24.4489ZM24.6756 18.1227C25.8912 16.8908 25.8152 14.8888 24.5098 13.7526L21.8837 16.7698C21.4486 16.3911 21.4232 15.7237 21.8284 15.3131L24.6756 18.1227ZM24.5098 13.7526L18.3225 8.36745L15.6964 11.3847L21.8837 16.7698L24.5098 13.7526ZM17.0094 7.87607H10.9734V11.8761H17.0094V7.87607ZM10.9734 7.87607H10.4254V11.8761H10.9734V7.87607ZM10.4254 7.87607H9.87673V11.8761H10.4254V7.87607ZM2.19468 11.8761H9.87673V7.87607H2.19468V11.8761Z" fill="#114FFF" mask="url(#path-1-inside-1_105_73)"/>
<path fill-rule="evenodd" clip-rule="evenodd" d="M24.6908 0C23.4787 0 22.4961 0.982592 22.4961 2.19468V2.44057L31.9702 12.01C32.6053 12.6515 32.6053 13.6847 31.9702 14.3262L22.4961 23.8956V24.1415C22.4961 25.3536 23.4787 26.3362 24.6908 26.3362H46.6376C47.8497 26.3362 48.8323 25.3536 48.8323 24.1415V2.19468C48.8323 0.982593 47.8497 0 46.6376 0H24.6908Z" fill="#114FFF"/>
</svg>
