<svg width="106" height="27" viewBox="0 0 106 27" fill="none" xmlns="http://www.w3.org/2000/svg">
<mask id="path-1-inside-1_105_101" fill="white">
<path fill-rule="evenodd" clip-rule="evenodd" d="M2.19468 9.87607C0.982593 9.87607 0 10.8587 0 12.0708V20.8495C0 22.0616 0.982593 23.0442 2.19468 23.0442L9.87673 23.0442L10.9734 23.0442L17.0094 23.0442L23.252 16.7179C23.6572 16.3073 23.6319 15.6399 23.1967 15.2612L17.0094 9.87607H10.9734H10.4254H9.87673H2.19468Z"/>
</mask>
<path d="M2.19468 23.0442L2.19468 21.0442H2.19468V23.0442ZM9.87673 23.0442L9.87673 25.0442L9.87673 25.0442L9.87673 23.0442ZM10.9734 23.0442L10.9734 21.0442L10.9734 21.0442L10.9734 23.0442ZM17.0094 23.0442L17.0094 25.0442L17.8457 25.0442L18.433 24.4489L17.0094 23.0442ZM23.252 16.7179L21.8284 15.3131L21.8284 15.3131L23.252 16.7179ZM23.1967 15.2612L24.5098 13.7526L24.5098 13.7526L23.1967 15.2612ZM17.0094 9.87607L18.3225 8.36745L17.7579 7.87607H17.0094V9.87607ZM2 12.0708C2 11.9632 2.08716 11.8761 2.19468 11.8761V7.87607C-0.121977 7.87607 -2 9.75409 -2 12.0708H2ZM2 20.8495V12.0708H-2V20.8495H2ZM2.19468 21.0442C2.08716 21.0442 2 20.957 2 20.8495H-2C-2 23.1661 -0.121976 25.0442 2.19468 25.0442V21.0442ZM9.87673 21.0442L2.19468 21.0442L2.19468 25.0442L9.87673 25.0442L9.87673 21.0442ZM9.87673 25.0442L10.9734 25.0442L10.9734 21.0442L9.87673 21.0442L9.87673 25.0442ZM10.9734 25.0442L17.0094 25.0442L17.0094 21.0442L10.9734 21.0442L10.9734 25.0442ZM18.433 24.4489L24.6756 18.1227L21.8284 15.3131L15.5858 21.6394L18.433 24.4489ZM24.6756 18.1227C25.8912 16.8908 25.8152 14.8888 24.5098 13.7526L21.8837 16.7698C21.4486 16.3911 21.4232 15.7237 21.8284 15.3131L24.6756 18.1227ZM24.5098 13.7526L18.3225 8.36745L15.6964 11.3847L21.8837 16.7698L24.5098 13.7526ZM17.0094 7.87607H10.9734V11.8761H17.0094V7.87607ZM10.9734 7.87607H10.4254V11.8761H10.9734V7.87607ZM10.4254 7.87607H9.87673V11.8761H10.4254V7.87607ZM2.19468 11.8761H9.87673V7.87607H2.19468V11.8761Z" fill="#114FFF" mask="url(#path-1-inside-1_105_101)"/>
<path fill-rule="evenodd" clip-rule="evenodd" d="M24.6908 0C23.4787 0 22.4961 0.982592 22.4961 2.19468V2.44057L31.9702 12.01C32.6053 12.6515 32.6053 13.6847 31.9702 14.3262L22.4961 23.8956V24.1415C22.4961 25.3536 23.4787 26.3362 24.6908 26.3362H46.6376C47.8497 26.3362 48.8323 25.3536 48.8323 24.1415V2.19468C48.8323 0.982593 47.8497 0 46.6376 0H24.6908Z" fill="#114FFF"/>
<path d="M60.6339 23.216C59.6379 23.216 58.6719 23.084 57.7359 22.82C56.8119 22.544 56.0679 22.19 55.5039 21.758L56.4939 19.562C57.0339 19.958 57.6759 20.276 58.4199 20.516C59.1639 20.756 59.9079 20.876 60.6519 20.876C61.4799 20.876 62.0919 20.756 62.4879 20.516C62.8839 20.264 63.0819 19.934 63.0819 19.526C63.0819 19.226 62.9619 18.98 62.7219 18.788C62.4939 18.584 62.1939 18.422 61.8219 18.302C61.4619 18.182 60.9699 18.05 60.3459 17.906C59.3859 17.678 58.5999 17.45 57.9879 17.222C57.3759 16.994 56.8479 16.628 56.4039 16.124C55.9719 15.62 55.7559 14.948 55.7559 14.108C55.7559 13.376 55.9539 12.716 56.3499 12.128C56.7459 11.528 57.3399 11.054 58.1319 10.706C58.9359 10.358 59.9139 10.184 61.0659 10.184C61.8699 10.184 62.6559 10.28 63.4239 10.472C64.1919 10.664 64.8639 10.94 65.4399 11.3L64.5399 13.514C63.3759 12.854 62.2119 12.524 61.0479 12.524C60.2319 12.524 59.6259 12.656 59.2299 12.92C58.8459 13.184 58.6539 13.532 58.6539 13.964C58.6539 14.396 58.8759 14.72 59.3199 14.936C59.7759 15.14 60.4659 15.344 61.3899 15.548C62.3499 15.776 63.1359 16.004 63.7479 16.232C64.3599 16.46 64.8819 16.82 65.3139 17.312C65.7579 17.804 65.9799 18.47 65.9799 19.31C65.9799 20.03 65.7759 20.69 65.3679 21.29C64.9719 21.878 64.3719 22.346 63.5679 22.694C62.7639 23.042 61.7859 23.216 60.6339 23.216Z" fill="#114FFF"/>
<path d="M79.5284 10.4V23H76.6124V17.834H70.8884V23H67.9724V10.4H70.8884V15.368H76.6124V10.4H79.5284Z" fill="#114FFF"/>
<path d="M90.5375 23L88.1075 19.49H85.4255V23H82.5095V10.4H87.9635C89.0795 10.4 90.0455 10.586 90.8615 10.958C91.6895 11.33 92.3255 11.858 92.7695 12.542C93.2135 13.226 93.4355 14.036 93.4355 14.972C93.4355 15.908 93.2075 16.718 92.7515 17.402C92.3075 18.074 91.6715 18.59 90.8435 18.95L93.6695 23H90.5375ZM90.4835 14.972C90.4835 14.264 90.2555 13.724 89.7995 13.352C89.3435 12.968 88.6775 12.776 87.8015 12.776H85.4255V17.168H87.8015C88.6775 17.168 89.3435 16.976 89.7995 16.592C90.2555 16.208 90.4835 15.668 90.4835 14.972Z" fill="#114FFF"/>
<path d="M98.1801 12.776H94.1481V10.4H105.128V12.776H101.096V23H98.1801V12.776Z" fill="#114FFF"/>
</svg>
