<svg width="49" height="27" viewBox="0 0 49 27" fill="none" xmlns="http://www.w3.org/2000/svg">
<path fill-rule="evenodd" clip-rule="evenodd" d="M0 12.0708C0 10.8587 0.982593 9.87607 2.19468 9.87607H9.87673H10.4254H10.9734H17.0094L17.0156 9.88346C17.2763 9.8492 17.5491 9.93402 17.7494 10.1379L23.3361 15.8279C23.6789 16.1771 23.6789 16.7432 23.3361 17.0923L17.7494 22.7823C17.5491 22.9862 17.2763 23.071 17.0156 23.0368L17.0094 23.0442L10.9734 23.0442L9.87673 23.0442L2.19468 23.0442C0.982593 23.0442 0 22.0616 0 20.8495V12.0708Z" fill="#FF4042"/>
<path fill-rule="evenodd" clip-rule="evenodd" d="M24.6908 0C23.4787 0 22.4961 0.982592 22.4961 2.19468V2.44057L31.9702 12.01C32.6053 12.6515 32.6053 13.6847 31.9702 14.3262L22.4961 23.8956V24.1415C22.4961 25.3536 23.4787 26.3362 24.6908 26.3362H46.6376C47.8497 26.3362 48.8323 25.3536 48.8323 24.1415V2.19468C48.8323 0.982593 47.8497 0 46.6376 0H24.6908Z" fill="#114FFF"/>
</svg>
